<svg xmlns="http://www.w3.org/2000/svg" width="230.46" height="372.248">
  <defs>
    <style>@font-face{font-family:"Virgil";src:url(https://excalidraw.com/Virgil.woff2)}</style>
  </defs>
  <g>
    <path d="M77.23 54.5s0 0 0 0m0 0s0 0 0 0m-.26 6.4c2.49-2.43 3.46-3.45 5.25-6.04m-5.25 6.04c1.76-1.94 3.02-3.08 5.25-6.04m-4.86 11.68c3.65-1.75 4.36-5.71 10.5-12.07m-10.5 12.07c2.82-3.36 6.4-7.69 10.5-12.07M77.1 72.94c4.91-6.88 10.33-10.91 15.75-18.11M77.1 72.94C81.68 66 89.27 59.41 92.85 54.83M77.5 78.58c2.85-3.99 9.25-7.7 20.99-24.15M77.5 78.58c3.87-5.11 9.63-9.76 20.99-24.15M77.23 84.98c7.14-8.61 13.21-14.38 26.25-30.19M77.23 84.98c5.48-7.62 11.95-13.26 26.25-30.19M76.97 91.38C88.29 80.22 98.64 65.6 109.12 54.4M76.97 91.38c10.65-11.87 20.76-25.55 32.15-36.98M77.37 97.02c7.86-9.36 20.66-22.58 32.8-37.74m-32.8 37.74c10.84-11.81 20.91-24.51 32.8-37.74m-33.06 44.14c9.63-10.9 18.21-19.29 32.8-37.74m-32.8 37.74c10.03-11.49 19.35-21.34 32.8-37.74M77.5 109.06c7.72-10.02 16-19.26 32.15-36.98M77.5 109.06c11.17-10.43 20.67-23.39 32.15-36.98m-32.41 43.38c7.62-10.06 18.63-19.76 32.8-37.74m-32.8 37.74c9.35-11.37 19.91-22.61 32.8-37.74m-33.06 44.14c8.67-7.05 14.41-15.84 32.8-37.74m-32.8 37.74c9.85-10.75 20.66-23.56 32.8-37.74M77.37 127.5C89.28 114 96.48 105 110.18 89.76M77.37 127.5c8.63-10.96 17.85-21.12 32.81-37.74M77.11 133.9c11.38-14.72 21.48-25.23 32.8-37.74m-32.8 37.74c8.37-8.3 16.07-17.35 32.8-37.74m-32.4 43.38c8.93-10.88 18.92-18.2 32.14-36.98m-32.14 36.98c9.48-9.76 17.39-18.95 32.14-36.98m-32.41 43.38c8.24-12.2 17.68-21.86 32.81-37.74m-32.81 37.74c8.54-9.38 16.87-19.59 32.81-37.74m-33.07 44.14c7.17-8.33 16.91-17.02 32.81-37.74m-32.81 37.74c8.44-10.15 16.84-19.53 32.81-37.74m-32.41 43.38c10.66-12.55 20.31-23.16 32.8-37.74m-32.8 37.74c6.8-7.97 13.33-14.6 32.8-37.74m-33.06 44.14c6.96-6 14.41-16.89 32.8-37.74m-32.8 37.74c13.14-13.21 24.14-28.46 32.8-37.74m-32.41 43.38c12.22-14.91 25.72-27.79 32.15-36.98m-32.15 36.98c8.27-11.17 18.35-21.87 32.15-36.98m-32.41 43.38c5.88-8.95 12.98-16.13 32.8-37.74m-32.8 37.74c9.03-8.41 17.09-19.1 32.8-37.74m-33.06 44.14c10.95-13.53 23.42-29.8 32.8-37.74m-32.8 37.74c11.6-14.89 23.04-28.7 32.8-37.74m-32.41 43.38c11.85-11.51 22.56-28.68 32.81-37.74m-32.81 37.74c8.3-10.24 17.31-20.99 32.81-37.74m-33.07 44.14c11.9-13.8 21.22-26.71 32.8-37.74m-32.8 37.74c11.29-12.68 22.27-25.83 32.8-37.74m-32.4 43.38c9.43-11.26 16.15-19.49 32.14-36.98M77.52 200.5c11.68-12.57 22.09-25.33 32.14-36.98M77.25 206.9c7.65-12.25 19.17-19.42 32.81-37.74M77.25 206.9c10.62-11.45 21.97-25.03 32.81-37.74M76.99 213.3c12.9-12.26 25.69-29.59 32.81-37.74M76.99 213.3c10.02-11.96 20.76-24.23 32.81-37.74m-32.41 43.38c7.73-9.89 12.29-15.63 32.8-37.74m-32.8 37.74c10.04-10.69 19.56-22.03 32.8-37.74m-33.06 44.14c12.74-13.9 26.24-30.51 32.8-37.74m-32.8 37.74c11.56-12.57 22.3-24.56 32.8-37.74m-32.41 43.38c9.06-8.32 17.06-18 32.15-36.98m-32.15 36.98c7.11-8.69 14.46-16.36 32.15-36.98m-32.41 43.38c10.23-12.75 21.21-25.94 32.8-37.74m-32.8 37.74c11.13-13.71 21.61-25.01 32.8-37.74M77 243.77c13.39-16.46 27.17-28.34 32.8-37.73M77 243.77c10.93-12.88 21.76-24.13 32.8-37.73m-32.41 43.38c8.48-9.93 17.88-18.5 32.81-37.74m-32.81 37.74c11.51-12.06 22.34-24.57 32.81-37.74m-33.07 44.14c6.41-7.8 16.35-19.4 32.8-37.74m-32.8 37.74c9.06-9.44 17.51-19.68 32.8-37.74m-32.4 43.38c9.15-11.84 16.21-18.46 32.14-36.98m-32.14 36.98c9.2-11.72 18.73-22.61 32.14-36.98m-32.41 43.38c13.69-12.18 23.42-25.78 32.81-37.74m-32.81 37.74c9.48-11.4 19.45-22.73 32.81-37.74M77 274.25c4.33-8.66 12.4-16.23 32.81-37.73M77 274.25c11.29-12.65 21.39-24.42 32.81-37.73M77.4 279.9c8.15-10.12 19.6-21.24 32.14-36.98M77.4 279.9c12.13-14.62 22.81-27.44 32.14-36.98m-32.4 43.38c11.1-11.98 21.95-24.04 32.8-37.74m-32.8 37.74c6.98-8.91 16.3-17.68 32.8-37.74m-32.41 43.38c12.01-10.87 19.94-26.17 32.15-36.98m-32.15 36.98c6.7-7.97 13.85-15.61 32.15-36.98m-32.41 43.38c11.37-10.23 20.49-23.8 32.8-37.74m-32.8 37.74c13.17-14.14 26.13-28.84 32.8-37.74m-33.06 44.13c10.54-13.02 23.36-25.38 32.8-37.73m-32.8 37.73c12.88-13.78 25.21-28.77 32.8-37.73M77.4 310.38c5.53-7.22 14.62-18.47 32.15-36.98M77.4 310.38c9.25-12.36 20.38-23.22 32.15-36.98m-27.16 37.34c11.53-11 19.01-23.3 27.55-31.7m-27.55 31.7c7.38-9.81 16.79-18.2 27.55-31.7m-21.91 31.3c9.48-8.68 15.95-15.37 21.65-24.9m-21.65 24.9c8.19-8.92 16.2-19.15 21.65-24.9M93.02 310.7c2.91-4.59 8.63-10.12 17.06-19.62M93.02 310.7c3.62-4.03 7.83-8.59 17.06-19.62m-11.42 19.23c5.52-5.71 7.68-10.32 11.16-12.83m-11.16 12.83c4.15-4.91 8.43-9.6 11.16-12.83m-6.17 13.19c1-1.85 3.9-4.37 5.9-6.79m-5.9 6.79c2.39-2.51 4.08-4.77 5.9-6.79m-.26 6.39c.23-.3.43-.5.66-.75m-.66.75c.25-.22.43-.52.66-.75" stroke="#9c36b5" stroke-width=".5" fill="none"/>
    <path d="M77.23 54.5c10.93-2.08 22.14-2.08 32 0m-32 0c8.64-.65 18.1-.23 32 0m0 0c.16 61.86 1.7 127.26 0 256m0-256c1.7 76.16 2.38 152.07 0 256m0 0c-8.69-.11-16.43 1.14-32 0m32 0c-10.23.36-19.69.7-32 0m0 0c.37-100.17.06-200.52 0-256m0 256c-.24-73.58-1.35-145.51 0-256" stroke="#1e1e1e" fill="none"/>
    <path d="M121.23 194.626s0 0 0 0m0 0s0 0 0 0m-.26 6.4c1.53-1.23 3.02-3.53 5.25-6.04m-5.25 6.04c2.15-2.03 3.51-4.53 5.25-6.04m-4.86 11.68c3.68-5.05 7.75-10.18 10.5-12.07m-10.5 12.07c3.25-4.13 7.04-7.17 10.5-12.07m-10.76 18.47c4.22-3.7 8.81-7.02 15.75-18.11m-15.75 18.11c5.65-5.61 8.29-11.13 15.75-18.11m-15.35 23.75c4.95-3.03 6.88-10.29 20.99-24.15m-20.99 24.15c6.2-5.77 10.42-11.86 20.99-24.15m-21.26 30.55c5.97-6.05 10.22-14.03 26.25-30.19m-26.25 30.19c8.49-8.94 17.97-20.44 26.25-30.19m-26.51 36.59c7.07-9.69 15.63-18.62 32.15-36.98m-32.15 36.98c8.5-11.75 18.56-22.05 32.15-36.98m-31.75 42.62c14.59-15.53 25.5-28.8 34.77-40m-34.77 40c11.73-14.1 24.05-29.38 34.77-40m-35.03 46.4c12.68-13.22 23.01-26.57 34.77-40m-34.77 40c12.31-13.17 22.82-26.73 34.77-40m-34.38 45.64c14.67-17.13 28.03-32.7 34.77-40m-34.77 40c8.34-10.35 15.88-20.08 34.77-40m-35.03 46.4c10.99-11.01 18.48-19.59 34.77-40m-34.77 40c12.89-13.99 24.38-29.2 34.77-40m-35.03 46.4c14.13-15.91 27.11-33.63 35.43-40.76m-35.43 40.76c11.52-13.47 22.08-25.32 35.43-40.76m-35.04 46.4c5.86-7.57 14.19-16.67 34.77-40m-34.77 40c12.02-13.91 23.5-27.18 34.77-40m-35.03 46.4c5.99-7.7 13.67-17.69 34.77-40m-34.77 40c11.02-12.16 20.39-23.86 34.77-40m-34.37 45.64c11.72-9.72 19.63-25.14 34.77-40m-34.77 40c8.57-9.58 17.9-21.71 34.77-40m-35.04 46.4c7.96-10.54 17.13-21.68 34.78-40m-34.78 40c13.24-15.58 27.39-31.58 34.78-40m-35.04 46.4c9.75-8.68 15.69-19.67 35.43-40.76m-35.43 40.76c14.2-16.21 28.37-31.95 35.43-40.76m-35.03 46.4c11.57-12.81 21.26-26.33 34.77-40m-34.77 40c7.15-7.6 13.67-17.39 34.77-40m-35.03 46.4c10.06-12.57 19.87-21.84 34.77-40m-34.77 40c6.34-8.93 15.69-17.02 34.77-40m-34.38 45.64c13.12-12.79 25.26-29.3 34.77-40m-34.77 40c13.46-15.46 25.6-29.04 34.77-40m-31.75 42.62c8.62-10.48 16.08-21.02 31.49-36.22m-31.49 36.22c7.21-8.81 14.16-16.22 31.49-36.22m-26.5 36.58c7.55-11.45 18.81-18.78 26.9-30.94m-26.9 30.94c9.29-12.09 20.45-21.92 26.9-30.94m-21.26 30.55c3.48-6.98 8.63-8.78 20.99-24.15m-20.99 24.15c6.55-8.04 14.91-15.87 20.99-24.15m-16 24.51c2.62-5.2 8.3-7.5 15.74-18.11m-15.74 18.11c4.83-5.64 8.62-10.89 15.74-18.11m-10.76 18.47c2.59-3.83 7.85-7.61 11.16-12.83m-11.16 12.83c4.13-4.54 7.67-8.69 11.16-12.83m-5.51 12.44c1.78-.89 2.78-3.39 5.25-6.04m-5.25 6.04c1.53-1.84 3.11-3.55 5.25-6.04" stroke="#9c36b5" stroke-width=".5" fill="none"/>
    <path d="M121.23 194.626c13.03-1.48 25.45.37 32 0m-32 0c10.37.09 22.12.84 32 0m0 0c-.55 38.68-.98 78.17 0 115.87m0-115.87c.29 28.46-.46 55.44 0 115.87m0 0c-7.16 1.2-17.83-.24-32 0m32 0c-12.75.46-23.75-.69-32 0m0 0c-.97-28.16.5-56.2 0-115.87m0 115.87c-1.49-32.36-.5-64.42 0-115.87" stroke="#1e1e1e" fill="none"/>
  </g>
  <text x="105.23" font-family="Virgil, Segoe UI Emoji" font-size="20" fill="#1e1e1e" text-anchor="middle" style="white-space:pre" dominant-baseline="text-before-edge" transform="translate(10 10)">Total DLL Size (MB)</text>
  <text x="36.336" font-family="Virgil, Segoe UI Emoji" font-size="16" fill="#1e1e1e" text-anchor="middle" style="white-space:pre" dominant-baseline="text-before-edge" transform="rotate(-23.674 846.482 48.061)">Standard</text>
  <text x="30.608" font-family="Virgil, Segoe UI Emoji" font-size="16" fill="#1e1e1e" text-anchor="middle" style="white-space:pre" dominant-baseline="text-before-edge" transform="rotate(-23.674 865.618 -70.574)">Chiseled</text>
  <text x="13.76" font-family="Virgil, Segoe UI Emoji" font-size="20" fill="#1e1e1e" text-anchor="end" style="white-space:pre" dominant-baseline="text-before-edge" transform="translate(39.47 298)">0</text>
  <text x="30.02" font-family="Virgil, Segoe UI Emoji" font-size="20" fill="#1e1e1e" text-anchor="end" style="white-space:pre" dominant-baseline="text-before-edge" transform="translate(23.21 41.5)">9.5</text>
  <text x="31.9" font-family="Virgil, Segoe UI Emoji" font-size="20" fill="#1e1e1e" text-anchor="end" style="white-space:pre" dominant-baseline="text-before-edge" transform="translate(122.197 165.767)">4.3</text>
  <path d="M65.23 322.5c23.22-2.22 49.9.23 100 0m-100 0c29.36 1 59.83 1.08 100 0M65.23 322.5c1.94-91.82 1.61-183.02 0-280m0 280c1-67.2.43-135.54 0-280" stroke="#1e1e1e" fill="none"/>
  <path d="M65.23 54.5c20.28 1.58 39.53-.78 100 0" stroke="#1e1e1e" stroke-width="1.5" fill="none" stroke-dasharray="1.5 7" stroke-opacity=".5" fill-opacity=".5" stroke-linecap="round"/>
</svg>
